<?xml version="1.0" encoding="UTF-8" standalone="no"?>
<!DOCTYPE svg PUBLIC "-//W3C//DTD SVG 1.1//EN" "http://www.w3.org/Graphics/SVG/1.1/DTD/svg11.dtd">
<svg width="100%" height="100%" viewBox="0 0 3212 680" version="1.1" xmlns="http://www.w3.org/2000/svg" xmlns:xlink="http://www.w3.org/1999/xlink" xml:space="preserve" xmlns:serif="http://www.serif.com/" style="fill-rule:evenodd;clip-rule:evenodd;stroke-linecap:round;stroke-linejoin:round;stroke-miterlimit:1.5;">
    <g transform="matrix(1.33333,0,0,1.33333,-358.287,-827.207)">
        <g transform="matrix(1,0,0,1,-3006.52,-3144.9)">
            <g transform="matrix(4.30489,0,0,0.535526,-1030.07,3325.17)">
                <path d="M1129.94,1496.06C1127.65,1496.06 1125.89,1491.12 1124.66,1481.23C1123.43,1471.35 1122.81,1457.19 1122.81,1438.77L1122.81,1078.16C1122.81,1059.73 1123.43,1045.58 1124.66,1035.69C1125.89,1025.81 1127.65,1020.87 1129.94,1020.87L1158.95,1020.87C1161.36,1020.87 1163.17,1024.91 1164.4,1033C1165.63,1041.09 1166.25,1052.77 1166.25,1068.05C1166.25,1100.4 1163.82,1116.58 1158.95,1116.58L1137.82,1116.58L1137.82,1206.9L1157.28,1206.9C1162.14,1206.9 1164.57,1222.85 1164.57,1254.76C1164.57,1270.04 1163.95,1281.72 1162.73,1289.81C1161.5,1297.89 1159.68,1301.94 1157.28,1301.94L1137.82,1301.94L1137.82,1400.35L1158.95,1400.35C1163.82,1400.35 1166.25,1416.53 1166.25,1448.88C1166.25,1464.16 1165.63,1475.84 1164.4,1483.93C1163.17,1492.02 1161.36,1496.06 1158.95,1496.06L1129.94,1496.06Z" style="fill:rgb(72,142,202);fill-rule:nonzero;"/>
                <path d="M1216.64,1249.36C1220.11,1257.9 1222.76,1272.17 1224.61,1292.17C1226.45,1312.16 1227.37,1336.77 1227.37,1365.97C1227.37,1392.04 1226.52,1414.84 1224.82,1434.39C1223.11,1453.93 1220.68,1469.1 1217.52,1479.89C1214.36,1490.67 1210.66,1496.06 1206.41,1496.06L1184.11,1496.06C1181.82,1496.06 1180.05,1491.12 1178.82,1481.23C1177.59,1471.35 1176.98,1457.19 1176.98,1438.77L1176.98,1078.16C1176.98,1059.73 1177.59,1045.58 1178.82,1035.69C1180.05,1025.81 1181.82,1020.87 1184.11,1020.87L1205.57,1020.87C1211.78,1020.87 1216.71,1031.99 1220.37,1054.23C1224.03,1076.47 1225.86,1106.47 1225.86,1144.21C1225.86,1168.48 1225.05,1189.94 1223.43,1208.59C1221.81,1227.23 1219.55,1240.83 1216.64,1249.36ZM1191.99,1207.57L1202.97,1207.57C1205.88,1207.57 1208,1203.98 1209.35,1196.79C1210.69,1189.6 1211.36,1178.14 1211.36,1162.41C1211.36,1145.79 1210.69,1133.65 1209.35,1126.02C1208,1118.38 1205.88,1114.56 1202.97,1114.56L1191.99,1114.56L1191.99,1207.57ZM1204.48,1402.37C1207.56,1402.37 1209.75,1398.44 1211.06,1390.58C1212.38,1382.71 1213.04,1369.79 1213.04,1351.82C1213.04,1333.84 1212.38,1320.92 1211.06,1313.06C1209.75,1305.2 1207.56,1301.27 1204.48,1301.27L1191.99,1301.27L1191.99,1402.37L1204.48,1402.37Z" style="fill:rgb(72,142,202);fill-rule:nonzero;"/>
                <path d="M1246.49,1496.06C1244.2,1496.06 1242.44,1491.12 1241.21,1481.23C1239.98,1471.35 1239.36,1457.19 1239.36,1438.77L1239.36,1078.16C1239.36,1059.73 1239.98,1045.58 1241.21,1035.69C1242.44,1025.81 1244.2,1020.87 1246.49,1020.87L1275.5,1020.87C1277.91,1020.87 1279.72,1024.91 1280.95,1033C1282.18,1041.09 1282.8,1052.77 1282.8,1068.05C1282.8,1100.4 1280.37,1116.58 1275.5,1116.58L1254.37,1116.58L1254.37,1206.9L1273.83,1206.9C1278.69,1206.9 1281.12,1222.85 1281.12,1254.76C1281.12,1270.04 1280.51,1281.72 1279.28,1289.81C1278.05,1297.89 1276.23,1301.94 1273.83,1301.94L1254.37,1301.94L1254.37,1400.35L1275.5,1400.35C1280.37,1400.35 1282.8,1416.53 1282.8,1448.88C1282.8,1464.16 1282.18,1475.84 1280.95,1483.93C1279.72,1492.02 1277.91,1496.06 1275.5,1496.06L1246.49,1496.06Z" style="fill:rgb(60,68,91);fill-rule:nonzero;"/>
                <path d="M1300.66,1496.06C1298.37,1496.06 1296.61,1491.12 1295.38,1481.23C1294.15,1471.35 1293.53,1456.97 1293.53,1438.1L1293.53,1078.16C1293.53,1059.73 1294.22,1045.02 1295.59,1034.01C1296.95,1023 1298.81,1017.49 1301.16,1017.49C1303.57,1017.49 1305.47,1023 1306.86,1034.01C1308.26,1045.02 1308.96,1059.73 1308.96,1078.16L1308.96,1395.63L1328.25,1395.63C1333.11,1395.63 1335.54,1412.48 1335.54,1446.18C1335.54,1463.26 1334.94,1475.84 1333.74,1483.93C1332.54,1492.02 1330.7,1496.06 1328.25,1496.06L1300.66,1496.06Z" style="fill:rgb(60,68,91);fill-rule:nonzero;"/>
                <path d="M1353.23,1500.11C1350.88,1500.11 1349.03,1494.6 1347.66,1483.59C1346.29,1472.58 1345.6,1457.64 1345.6,1438.77L1345.6,1078.16C1345.6,1059.73 1346.29,1045.02 1347.66,1034.01C1349.03,1023 1350.88,1017.49 1353.23,1017.49C1355.64,1017.49 1357.54,1023 1358.93,1034.01C1360.33,1045.02 1361.03,1059.73 1361.03,1078.16L1361.03,1438.77C1361.03,1457.64 1360.33,1472.58 1358.93,1483.59C1357.54,1494.6 1355.64,1500.11 1353.23,1500.11Z" style="fill:rgb(60,68,91);fill-rule:nonzero;"/>
                <path d="M1422.16,1227.8C1424,1227.8 1425.47,1231.95 1426.56,1240.27C1427.65,1248.58 1428.19,1259.7 1428.19,1273.63L1428.19,1390.91C1428.19,1413.38 1427.99,1430.57 1427.57,1442.48C1427.15,1454.38 1426.39,1463.71 1425.3,1470.45C1424.21,1477.19 1422.58,1483.03 1420.4,1487.97C1418.22,1492.47 1415.8,1495.95 1413.14,1498.42C1410.49,1500.89 1408.01,1502.13 1405.72,1502.13C1399.29,1502.13 1393.72,1492.36 1388.99,1472.81C1384.27,1453.26 1380.65,1425.18 1378.14,1388.55C1375.62,1351.93 1374.36,1308.45 1374.36,1258.13C1374.36,1208.7 1375.62,1165.67 1378.14,1129.05C1380.65,1092.42 1384.23,1064.23 1388.87,1044.46C1393.51,1024.68 1398.93,1014.8 1405.13,1014.8C1409.05,1014.8 1412.56,1018.5 1415.66,1025.92C1418.76,1033.33 1421.65,1044.68 1424.34,1059.96C1425.29,1065.35 1425.97,1071.19 1426.39,1077.48C1426.81,1083.78 1427.02,1091.86 1427.02,1101.75C1427.02,1115.68 1426.55,1127.48 1425.6,1137.14C1424.64,1146.8 1423.5,1151.63 1422.16,1151.63C1421.26,1151.63 1420.49,1150.62 1419.85,1148.6C1419.21,1146.57 1418.38,1143.09 1417.38,1138.15C1415.31,1129.16 1413.37,1122.64 1411.55,1118.6C1409.73,1114.56 1407.76,1112.53 1405.64,1112.53C1400.33,1112.53 1396.37,1124.44 1393.77,1148.26C1391.17,1172.07 1389.88,1208.7 1389.88,1258.13C1389.88,1308.9 1391.23,1346.54 1393.94,1371.03C1396.65,1395.52 1400.8,1407.76 1406.39,1407.76C1409.08,1407.76 1411.73,1405.52 1414.36,1401.02L1414.36,1312.72L1408.32,1312.72C1406.48,1312.72 1405.05,1309.02 1404.05,1301.6C1403.04,1294.19 1402.54,1283.74 1402.54,1270.26C1402.54,1256.78 1403.04,1246.33 1404.05,1238.92C1405.05,1231.5 1406.48,1227.8 1408.32,1227.8L1422.16,1227.8Z" style="fill:rgb(60,68,91);fill-rule:nonzero;"/>
                <path d="M1489.15,1017.49C1491.44,1017.49 1493.28,1023 1494.64,1034.01C1496.02,1045.02 1496.7,1059.73 1496.7,1078.16L1496.7,1438.77C1496.7,1457.19 1496.02,1472.02 1494.64,1483.26C1493.28,1494.49 1491.44,1500.11 1489.15,1500.11C1486.86,1500.11 1485.03,1494.6 1483.66,1483.59C1482.29,1472.58 1481.61,1457.64 1481.61,1438.77L1481.61,1303.96L1457.46,1303.96L1457.46,1438.77C1457.46,1457.19 1456.77,1472.02 1455.4,1483.26C1454.03,1494.49 1452.2,1500.11 1449.91,1500.11C1447.62,1500.11 1445.79,1494.6 1444.42,1483.59C1443.05,1472.58 1442.37,1457.64 1442.37,1438.77L1442.37,1078.16C1442.37,1059.73 1443.05,1045.02 1444.42,1034.01C1445.79,1023 1447.62,1017.49 1449.91,1017.49C1452.2,1017.49 1454.03,1023 1455.4,1034.01C1456.77,1045.02 1457.46,1059.73 1457.46,1078.16L1457.46,1205.55L1481.61,1205.55L1481.61,1078.16C1481.61,1059.73 1482.29,1045.02 1483.66,1034.01C1485.03,1023 1486.86,1017.49 1489.15,1017.49Z" style="fill:rgb(60,68,91);fill-rule:nonzero;"/>
                <path d="M1532.67,1499.43C1530.32,1499.43 1528.44,1493.93 1527.01,1482.92C1525.59,1471.91 1524.87,1457.19 1524.87,1438.77L1524.87,1121.3L1513.05,1121.3C1510.59,1121.3 1508.76,1117.14 1507.56,1108.83C1506.36,1100.51 1505.76,1087.82 1505.76,1070.74C1505.76,1053.67 1506.36,1041.09 1507.56,1033C1508.76,1024.91 1510.59,1020.87 1513.05,1020.87L1552.29,1020.87C1554.75,1020.87 1556.58,1024.91 1557.79,1033C1558.99,1041.09 1559.59,1053.67 1559.59,1070.74C1559.59,1087.82 1558.99,1100.51 1557.79,1108.83C1556.58,1117.14 1554.75,1121.3 1552.29,1121.3L1540.47,1121.3L1540.47,1438.77C1540.47,1457.19 1539.76,1471.91 1538.33,1482.92C1536.91,1493.93 1535.02,1499.43 1532.67,1499.43Z" style="fill:rgb(60,68,91);fill-rule:nonzero;"/>
            </g>
            <g transform="matrix(0.968073,0,0,0.758108,3048.22,3091.93)">
                <path d="M828.902,1547.18C835.898,1547.18 841.197,1545.14 844.799,1541.08C848.401,1537.01 850.202,1531.78 850.202,1525.38C850.202,1519.91 848.819,1515.38 846.052,1511.78C843.285,1508.18 838.926,1505.31 832.974,1503.18L819.348,1497.98C814.963,1496.24 811.151,1494.01 807.915,1491.28C804.678,1488.54 802.198,1485.14 800.475,1481.08C798.752,1477.01 797.891,1472.24 797.891,1466.78C797.891,1456.51 800.814,1448.48 806.662,1442.68C812.509,1436.88 820.288,1433.98 829.998,1433.98C835.637,1433.98 840.675,1434.74 845.112,1436.28C849.55,1437.81 853.048,1439.78 855.606,1442.18C858.164,1444.58 859.443,1447.11 859.443,1449.78C859.443,1451.51 859.078,1453.08 858.347,1454.48C857.616,1455.88 856.676,1456.98 855.528,1457.78C852.917,1455.11 849.393,1452.78 844.956,1450.78C840.518,1448.78 835.689,1447.78 830.468,1447.78C824.412,1447.78 819.609,1449.48 816.059,1452.88C812.509,1456.28 810.734,1460.91 810.734,1466.78C810.734,1471.44 812.013,1475.24 814.571,1478.18C817.129,1481.11 821.28,1483.64 827.022,1485.78L836.576,1489.38C844.825,1492.31 851.325,1496.58 856.076,1502.18C860.827,1507.78 863.202,1515.51 863.202,1525.38C863.202,1535.91 860.2,1544.44 854.196,1550.98C848.193,1557.51 839.761,1560.78 828.902,1560.78C822.533,1560.78 816.973,1559.88 812.222,1558.08C807.471,1556.28 803.764,1554.01 801.101,1551.28C798.439,1548.54 797.108,1545.84 797.108,1543.18C797.108,1540.91 797.656,1539.01 798.752,1537.48C799.849,1535.94 801.128,1534.84 802.589,1534.18C804.991,1537.11 808.384,1540.01 812.77,1542.88C817.155,1545.74 822.533,1547.18 828.902,1547.18Z" style="fill:rgb(60,68,91);fill-rule:nonzero;"/>
                <path d="M1104.71,1497.38C1104.71,1511.24 1102.73,1522.88 1098.76,1532.28C1094.79,1541.68 1089.39,1548.78 1082.55,1553.58C1075.71,1558.38 1067.96,1560.78 1059.29,1560.78C1050.73,1560.78 1043,1558.38 1036.11,1553.58C1029.22,1548.78 1023.79,1541.68 1019.82,1532.28C1015.86,1522.88 1013.87,1511.24 1013.87,1497.38C1013.87,1483.51 1015.91,1471.88 1019.98,1462.48C1024.05,1453.08 1029.51,1445.98 1036.35,1441.18C1043.19,1436.38 1050.84,1433.98 1059.29,1433.98C1067.86,1433.98 1075.56,1436.38 1082.39,1441.18C1089.23,1445.98 1094.66,1453.08 1098.68,1462.48C1102.7,1471.88 1104.71,1483.51 1104.71,1497.38ZM1091.71,1497.38C1091.71,1481.51 1088.76,1469.28 1082.87,1460.68C1076.96,1452.08 1069.11,1447.78 1059.29,1447.78C1049.58,1447.78 1041.78,1452.08 1035.88,1460.68C1029.98,1469.28 1027.03,1481.51 1027.03,1497.38C1027.03,1513.24 1029.95,1525.48 1035.8,1534.08C1041.65,1542.68 1049.48,1546.98 1059.29,1546.98C1069.21,1546.98 1077.1,1542.68 1082.94,1534.08C1088.79,1525.48 1091.71,1513.24 1091.71,1497.38Z" style="fill:rgb(60,68,91);fill-rule:nonzero;"/>
                <path d="M1260.87,1487.18L1273.71,1487.18L1273.71,1556.58L1267.76,1558.18C1265.77,1558.18 1264.13,1557.34 1262.82,1555.68C1261.52,1554.01 1260.87,1551.91 1260.87,1549.38L1260.87,1487.18ZM1267.76,1558.18L1267.76,1544.18L1318.66,1544.18C1319.18,1544.71 1319.6,1545.58 1319.91,1546.78C1320.23,1547.98 1320.38,1549.31 1320.38,1550.78C1320.38,1553.04 1319.91,1554.84 1318.97,1556.18C1318.03,1557.51 1316.78,1558.18 1315.21,1558.18L1267.76,1558.18ZM1273.71,1499.18L1260.87,1499.18L1260.87,1436.98C1261.39,1436.71 1262.2,1436.41 1263.29,1436.08C1264.39,1435.74 1265.56,1435.58 1266.82,1435.58C1269.11,1435.58 1270.84,1436.14 1271.99,1437.28C1273.13,1438.41 1273.71,1440.31 1273.71,1442.98L1273.71,1499.18Z" style="fill:rgb(60,68,91);fill-rule:nonzero;"/>
                <path d="M1507.55,1560.78C1499.71,1560.78 1493.03,1558.94 1487.5,1555.28C1481.96,1551.61 1477.76,1546.41 1474.89,1539.68C1472.02,1532.94 1470.58,1525.11 1470.58,1516.18L1470.58,1499.78L1483.27,1499.78L1483.27,1514.78C1483.27,1525.44 1485.59,1533.48 1490.24,1538.88C1494.88,1544.28 1500.65,1546.98 1507.55,1546.98C1514.44,1546.98 1520.2,1544.28 1524.85,1538.88C1529.5,1533.48 1531.82,1525.44 1531.82,1514.78L1531.82,1499.78L1544.66,1499.78L1544.66,1516.18C1544.66,1525.11 1543.23,1532.94 1540.36,1539.68C1537.49,1546.41 1533.28,1551.61 1527.75,1555.28C1522.21,1558.94 1515.48,1560.78 1507.55,1560.78ZM1483.27,1507.98L1470.58,1507.98L1470.58,1436.98C1471.1,1436.71 1471.91,1436.41 1473.01,1436.08C1474.11,1435.74 1475.28,1435.58 1476.53,1435.58C1478.83,1435.58 1480.53,1436.14 1481.62,1437.28C1482.72,1438.41 1483.27,1440.31 1483.27,1442.98L1483.27,1507.98ZM1544.66,1507.98L1531.82,1507.98L1531.82,1436.98C1532.34,1436.71 1533.15,1436.41 1534.25,1436.08C1535.35,1435.74 1536.52,1435.58 1537.77,1435.58C1540.07,1435.58 1541.79,1436.14 1542.94,1437.28C1544.09,1438.41 1544.66,1440.31 1544.66,1442.98L1544.66,1507.98Z" style="fill:rgb(60,68,91);fill-rule:nonzero;"/>
                <path d="M1732.92,1450.38L1732.14,1436.58L1768.63,1436.58C1768.95,1437.11 1769.26,1437.98 1769.57,1439.18C1769.89,1440.38 1770.04,1441.64 1770.04,1442.98C1770.04,1445.11 1769.63,1446.88 1768.79,1448.28C1767.95,1449.68 1766.76,1450.38 1765.19,1450.38L1732.92,1450.38ZM1733.24,1436.58L1734.02,1450.38L1697.37,1450.38C1697.06,1449.71 1696.75,1448.78 1696.43,1447.58C1696.12,1446.38 1695.96,1445.11 1695.96,1443.78C1695.96,1441.51 1696.38,1439.74 1697.21,1438.48C1698.05,1437.21 1699.25,1436.58 1700.82,1436.58L1733.24,1436.58ZM1726.66,1444.98L1739.35,1444.98L1739.35,1557.78C1738.82,1558.04 1738.02,1558.34 1736.92,1558.68C1735.82,1559.01 1734.7,1559.18 1733.55,1559.18C1731.25,1559.18 1729.53,1558.58 1728.38,1557.38C1727.23,1556.18 1726.66,1554.31 1726.66,1551.78L1726.66,1444.98Z" style="fill:rgb(60,68,91);fill-rule:nonzero;"/>
                <path d="M1921.65,1485.58L1934.34,1485.58L1934.34,1557.78C1933.82,1558.04 1933.04,1558.34 1931.99,1558.68C1930.95,1559.01 1929.8,1559.18 1928.55,1559.18C1926.25,1559.18 1924.53,1558.58 1923.38,1557.38C1922.23,1556.18 1921.65,1554.31 1921.65,1551.78L1921.65,1485.58ZM1934.34,1498.98L1921.65,1498.98L1921.65,1436.98C1922.18,1436.71 1922.99,1436.41 1924.08,1436.08C1925.18,1435.74 1926.35,1435.58 1927.61,1435.58C1929.9,1435.58 1931.6,1436.14 1932.7,1437.28C1933.79,1438.41 1934.34,1440.31 1934.34,1442.98L1934.34,1498.98Z" style="fill:rgb(60,68,91);fill-rule:nonzero;"/>
                <path d="M2181.49,1497.38C2181.49,1511.24 2179.51,1522.88 2175.54,1532.28C2171.57,1541.68 2166.17,1548.78 2159.33,1553.58C2152.49,1558.38 2144.74,1560.78 2136.07,1560.78C2127.51,1560.78 2119.78,1558.38 2112.89,1553.58C2106,1548.78 2100.57,1541.68 2096.6,1532.28C2092.63,1522.88 2090.65,1511.24 2090.65,1497.38C2090.65,1483.51 2092.68,1471.88 2096.76,1462.48C2100.83,1453.08 2106.28,1445.98 2113.12,1441.18C2119.96,1436.38 2127.61,1433.98 2136.07,1433.98C2144.63,1433.98 2152.33,1436.38 2159.17,1441.18C2166.01,1445.98 2171.44,1453.08 2175.46,1462.48C2179.48,1471.88 2181.49,1483.51 2181.49,1497.38ZM2168.49,1497.38C2168.49,1481.51 2165.54,1469.28 2159.64,1460.68C2153.74,1452.08 2145.88,1447.78 2136.07,1447.78C2126.36,1447.78 2118.55,1452.08 2112.65,1460.68C2106.76,1469.28 2103.8,1481.51 2103.8,1497.38C2103.8,1513.24 2106.73,1525.48 2112.58,1534.08C2118.42,1542.68 2126.25,1546.98 2136.07,1546.98C2145.99,1546.98 2153.87,1542.68 2159.72,1534.08C2165.57,1525.48 2168.49,1513.24 2168.49,1497.38Z" style="fill:rgb(60,68,91);fill-rule:nonzero;"/>
                <path d="M2337.64,1450.38L2348.29,1449.18C2348.71,1453.31 2349.08,1458.18 2349.39,1463.78C2349.7,1469.38 2349.94,1475.14 2350.09,1481.08C2350.25,1487.01 2350.33,1492.64 2350.33,1497.98L2350.33,1557.78C2349.81,1558.04 2349,1558.34 2347.9,1558.68C2346.8,1559.01 2345.68,1559.18 2344.53,1559.18C2342.24,1559.18 2340.51,1558.61 2339.37,1557.48C2338.22,1556.34 2337.64,1554.51 2337.64,1551.98L2337.64,1450.38ZM2413.13,1544.38L2402.33,1545.58C2401.28,1534.38 2400.68,1522.94 2400.53,1511.28C2400.37,1499.61 2400.29,1488.31 2400.29,1477.38L2400.29,1436.98C2400.92,1436.71 2401.75,1436.41 2402.8,1436.08C2403.84,1435.74 2404.99,1435.58 2406.24,1435.58C2408.54,1435.58 2410.26,1436.14 2411.41,1437.28C2412.56,1438.41 2413.13,1440.24 2413.13,1442.78L2413.13,1544.38ZM2413.13,1538.38L2413.13,1537.58L2413.13,1555.98C2412.19,1556.91 2410.99,1557.71 2409.53,1558.38C2408.07,1559.04 2406.45,1559.38 2404.68,1559.38C2402.17,1559.38 2400.03,1558.74 2398.26,1557.48C2396.48,1556.21 2394.86,1553.91 2393.4,1550.58L2363.64,1486.58C2362.08,1482.98 2360.35,1479.01 2358.47,1474.68C2356.59,1470.34 2354.82,1466.21 2353.15,1462.28C2351.48,1458.34 2350.17,1455.11 2349.23,1452.58L2337.64,1456.38L2337.64,1438.98C2338.48,1437.91 2339.65,1437.04 2341.17,1436.38C2342.68,1435.71 2344.33,1435.38 2346.1,1435.38C2348.61,1435.38 2350.75,1436.01 2352.52,1437.28C2354.3,1438.54 2355.91,1440.84 2357.38,1444.18L2387.29,1508.18C2388.96,1511.78 2390.71,1515.74 2392.54,1520.08C2394.37,1524.41 2396.06,1528.54 2397.63,1532.48C2399.19,1536.41 2400.45,1539.64 2401.39,1542.18L2413.13,1538.38Z" style="fill:rgb(60,68,91);fill-rule:nonzero;"/>
                <path d="M2600.92,1547.18C2607.92,1547.18 2613.22,1545.14 2616.82,1541.08C2620.42,1537.01 2622.22,1531.78 2622.22,1525.38C2622.22,1519.91 2620.84,1515.38 2618.07,1511.78C2615.31,1508.18 2610.95,1505.31 2605,1503.18L2591.37,1497.98C2586.98,1496.24 2583.17,1494.01 2579.94,1491.28C2576.7,1488.54 2574.22,1485.14 2572.5,1481.08C2570.77,1477.01 2569.91,1472.24 2569.91,1466.78C2569.91,1456.51 2572.84,1448.48 2578.68,1442.68C2584.53,1436.88 2592.31,1433.98 2602.02,1433.98C2607.66,1433.98 2612.7,1434.74 2617.13,1436.28C2621.57,1437.81 2625.07,1439.78 2627.63,1442.18C2630.19,1444.58 2631.47,1447.11 2631.47,1449.78C2631.47,1451.51 2631.1,1453.08 2630.37,1454.48C2629.64,1455.88 2628.7,1456.98 2627.55,1457.78C2624.94,1455.11 2621.41,1452.78 2616.98,1450.78C2612.54,1448.78 2607.71,1447.78 2602.49,1447.78C2596.43,1447.78 2591.63,1449.48 2588.08,1452.88C2584.53,1456.28 2582.76,1460.91 2582.76,1466.78C2582.76,1471.44 2584.03,1475.24 2586.59,1478.18C2589.15,1481.11 2593.3,1483.64 2599.04,1485.78L2608.6,1489.38C2616.85,1492.31 2623.35,1496.58 2628.1,1502.18C2632.85,1507.78 2635.22,1515.51 2635.22,1525.38C2635.22,1535.91 2632.22,1544.44 2626.22,1550.98C2620.21,1557.51 2611.78,1560.78 2600.92,1560.78C2594.55,1560.78 2588.99,1559.88 2584.24,1558.08C2579.49,1556.28 2575.79,1554.01 2573.12,1551.28C2570.46,1548.54 2569.13,1545.84 2569.13,1543.18C2569.13,1540.91 2569.68,1539.01 2570.77,1537.48C2571.87,1535.94 2573.15,1534.84 2574.61,1534.18C2577.01,1537.11 2580.41,1540.01 2584.79,1542.88C2589.18,1545.74 2594.55,1547.18 2600.92,1547.18Z" style="fill:rgb(60,68,91);fill-rule:nonzero;"/>
            </g>
            <g transform="matrix(0.982428,0,0,1,3021.1,3144.9)">
                <path d="M260.382,862.151C274.837,1234.49 829.843,1165.95 746.725,795.59C719.411,823.458 698.78,886.957 653.879,953.35C626.615,993.664 599.76,995.21 568.266,973.287C538.955,952.882 519.573,913.871 498.219,878.647C470.378,840.846 459.629,838.165 433.738,874.304L387.338,944.997C358.687,978.003 341.011,992.542 311.985,955.917C285.556,922.57 273.739,896.092 260.382,862.151Z" style="fill:rgb(61,66,94);stroke:rgb(61,66,94);stroke-width:3.36px;"/>
                <path d="M276.655,772.044C348.566,602.52 591.91,567.127 707.681,715.424C725.117,737.759 721.967,733.598 708.14,753.247L636.845,854.215C611.988,887.842 590.25,883.396 568.128,861.163L497.454,769.427C471.355,740.844 444.292,748.744 426.035,774.446L379.401,838.693C353.011,866.748 334.283,881.507 298.514,840.076C269.338,806.282 262.045,806.486 276.655,772.044Z" style="fill:rgb(72,142,202);stroke:rgb(72,142,202);stroke-width:3.36px;"/>
            </g>
        </g>
    </g>
</svg>
